# Blender v2.79 (sub 0) OBJ File: ''
# www.blender.org
o Cube_Cube.001
v -1.000000 0.000000 1.000000
v -1.000000 3.867133 1.000000
v -1.000000 0.000000 -1.000000
v -1.000000 3.867133 -1.000000
v 1.000000 0.000000 1.000000
v 1.000000 3.867133 1.000000
v 1.000000 0.000000 -1.000000
v 1.000000 3.867133 -1.000000
v 0.000000 5.096043 -0.000000
vn -1.0000 0.0000 0.0000
vn 0.0000 0.0000 -1.0000
vn 1.0000 0.0000 0.0000
vn 0.0000 0.0000 1.0000
vn 0.0000 -1.0000 0.0000
vn 0.0000 0.6312 -0.7756
vn 0.7756 0.6312 0.0000
vn -0.7756 0.6312 0.0000
vn 0.0000 0.6312 0.7756
s off
f 1//1 2//1 4//1 3//1
f 3//2 4//2 8//2 7//2
f 7//3 8//3 6//3 5//3
f 5//4 6//4 2//4 1//4
f 3//5 7//5 5//5 1//5
f 8//6 4//6 9//6
f 6//7 8//7 9//7
f 4//8 2//8 9//8
f 2//9 6//9 9//9
